<?xml version="1.0" encoding="UTF-8" standalone="no"?>
<!-- Created with Inkscape (http://www.inkscape.org/) -->

<svg
   width="260"
   height="260"
   viewBox="0 0 68.791668 68.791667"
   version="1.1"
   id="svg1"
   xml:space="preserve"
   xmlns="http://www.w3.org/2000/svg"
   xmlns:svg="http://www.w3.org/2000/svg"><defs
     id="defs1" /><g
     id="layer1"><g
       id="g67817"
       transform="translate(-0.52916667)"><path
         style="fill:#fea5a5"
         d="M 43.309059,59.601561 C 36.159891,58.716587 31.217451,55.757871 28.924389,50.990398 27.082023,47.159962 27.095279,47.300715 26.97496,30.290287 26.91537,21.865545 26.9377,14.689355 27.02458,14.343199 l 0.157963,-0.629376 4.822113,0.07209 4.822113,0.07209 0.134576,15.345833 c 0.132545,15.114356 0.143489,15.367783 0.725536,16.801041 1.223206,3.012073 2.316967,4.119885 4.999202,5.063424 1.295192,0.455614 2.02593,0.528595 4.459436,0.445378 2.44107,-0.08347 3.14793,-0.209735 4.38324,-0.782933 1.620345,-0.75186 3.217756,-2.235611 3.948482,-3.667536 1.144947,-2.243632 1.161341,-2.470041 1.312363,-18.123958 L 56.9351,13.858002 h 4.894791 4.894792 v 15.610416 c 0,17.429097 0.03132,17.081213 -1.892273,21.014843 -0.671575,1.373327 -1.490601,2.488469 -2.720557,3.704167 -2.686777,2.65563 -5.354674,4.037445 -9.542378,4.942396 -1.759825,0.380293 -7.597001,0.677646 -9.260416,0.471737 z M 7.7727315,58.799102 C 7.6723997,58.69877 7.59031,52.326212 7.59031,44.637862 V 30.659043 H 5.3942684 c -1.3552546,0 -2.3176011,-0.12156 -2.5135416,-0.3175 -0.2076187,-0.207619 -0.3174999,-1.303209 -0.3174999,-3.165691 0,-3.384601 0.010024,-3.395975 2.9927032,-3.395975 H 7.5250883 L 7.637915,20.671022 c 0.09531,-2.626188 0.2175016,-3.334782 0.7870386,-4.564062 1.0824785,-2.336405 2.6010734,-3.577173 5.3488554,-4.370281 1.966866,-0.567709 9.065694,-0.492218 9.784149,0.104047 0.350608,0.290979 0.436518,0.866208 0.436518,2.922798 0,1.638737 -0.114299,2.674819 -0.3175,2.878019 -0.192341,0.192342 -1.126122,0.3175 -2.3688,0.3175 -3.348923,0 -3.903835,0.500764 -4.124633,3.722149 l -0.140697,2.052712 3.221373,0.08913 c 2.504903,0.06931 3.277062,0.177402 3.471763,0.486007 0.374816,0.594092 0.325381,5.648113 -0.05901,6.0325 -0.211042,0.211042 -1.363559,0.3175 -3.437265,0.3175 h -3.119764 l -0.06846,14.089062 -0.06846,14.089062 -4.513932,0.07218 c -2.4826633,0.0397 -4.5960226,-0.0099 -4.6963545,-0.110243 z"
         id="path67823" /><path
         style="fill:#ffffff"
         d="M 42.959329,59.209684 C 34.860779,58.354429 29.831231,54.409538 27.911846,47.407295 27.371949,45.437658 27.340985,44.656958 27.233725,30.309941 27.171909,22.04153 27.194667,14.984278 27.284298,14.62716 l 0.162965,-0.649305 4.55746,0.07236 4.557461,0.07237 0.143285,15.213541 c 0.148988,15.819113 0.161535,15.992854 1.319248,18.268142 0.719402,1.413862 2.62559,3.019784 4.379781,3.689873 1.24649,0.476151 2.105872,0.598627 4.211852,0.600261 5.111382,0.004 7.968317,-1.794636 9.714445,-6.115792 0.597714,-1.479168 0.604791,-1.638511 0.736202,-16.574775 l 0.132686,-15.08125 h 4.630208 4.630208 V 29.60071 c 0,14.187327 -0.04032,15.621546 -0.483523,17.197916 -0.861058,3.062605 -1.979744,4.997922 -4.136086,7.155395 -3.198049,3.199728 -6.789959,4.736646 -12.328452,5.275137 -2.9764,0.289387 -3.646924,0.287394 -6.552709,-0.01947 z M 7.7727315,58.799102 C 7.6723997,58.69877 7.59031,52.326212 7.59031,44.637862 V 30.659043 H 5.3942684 c -1.3552546,0 -2.3176011,-0.12156 -2.5135416,-0.3175 C 2.5245853,29.985401 2.4339547,24.922059 2.7741412,24.386822 2.8992341,24.190005 3.8355367,24.037921 5.2174854,23.989947 l 2.2405329,-0.07778 0.1579025,-2.910416 c 0.2367827,-4.364316 0.7314919,-5.706375 2.7624812,-7.494123 1.961924,-1.726954 3.220793,-2.030877 8.412037,-2.030877 4.102922,0 4.482787,0.0404 4.828646,0.513591 0.494052,0.675936 0.5304,5.256122 0.04466,5.627824 -0.181901,0.139197 -1.243928,0.264849 -2.360061,0.279228 -3.45042,0.04445 -4.318894,0.990284 -4.135134,4.503468 l 0.07905,1.511305 3.164874,0.07503 c 2.124163,0.05036 3.232124,0.180861 3.369386,0.396875 0.304915,0.479855 0.255023,5.172187 -0.06128,5.7632 -0.247344,0.462166 -0.580521,0.511773 -3.437265,0.511773 h -3.163372 l -0.06846,14.089062 -0.06846,14.089062 -4.513932,0.07218 c -2.4826633,0.0397 -4.5960226,-0.0099 -4.6963545,-0.110243 z"
         id="path67822" /><path
         style="fill:#fe6262"
         d="M 42.959329,59.209684 C 34.860779,58.354429 29.831231,54.409538 27.911846,47.407295 27.371949,45.437658 27.340985,44.656958 27.233725,30.309941 27.171909,22.04153 27.194667,14.984278 27.284298,14.62716 l 0.162965,-0.649305 4.55746,0.07236 4.557461,0.07237 0.143285,15.213541 c 0.148988,15.819113 0.161535,15.992854 1.319248,18.268142 0.719402,1.413862 2.62559,3.019784 4.379781,3.689873 1.24649,0.476151 2.105872,0.598627 4.211852,0.600261 5.111382,0.004 7.968317,-1.794636 9.714445,-6.115792 0.597714,-1.479168 0.604791,-1.638511 0.736202,-16.574775 l 0.132686,-15.08125 h 4.630208 4.630208 V 29.60071 c 0,14.187327 -0.04032,15.621546 -0.483523,17.197916 -0.861058,3.062605 -1.979744,4.997922 -4.136086,7.155395 -3.198049,3.199728 -6.789959,4.736646 -12.328452,5.275137 -2.9764,0.289387 -3.646924,0.287394 -6.552709,-0.01947 z M 8.0375946,58.534799 C 7.9371089,58.434313 7.8548933,52.061629 7.8548933,44.373279 V 30.39446 H 5.6152441 c -1.9434862,0 -2.2758677,-0.06767 -2.5135416,-0.511773 C 2.7860375,29.292862 2.7358962,25.127865 3.0387245,24.651405 3.1638175,24.454589 4.10012,24.302504 5.4820687,24.25453 l 2.240533,-0.07778 0.1798712,-3.254764 c 0.156539,-2.832565 0.2811675,-3.471228 0.9607726,-4.923511 1.3951865,-2.981445 3.6801815,-4.139446 8.5166475,-4.316108 1.673489,-0.06113 3.697552,-0.0117 4.497916,0.109848 l 1.455209,0.22099 v 2.717024 2.717024 l -2.158424,0.07719 c -3.469232,0.124072 -4.414563,1.176469 -4.268943,4.752432 l 0.07737,1.899873 3.241146,0.07429 3.241145,0.07429 v 2.873966 c 0,2.376605 -0.07243,2.901758 -0.418514,3.034565 -0.230183,0.08833 -1.717421,0.160599 -3.304973,0.160599 h -2.886458 l -0.06847,14.089062 -0.06846,14.089062 -4.24907,0.07246 c -2.336988,0.03985 -4.3312846,-0.0098 -4.4317704,-0.110243 z"
         id="path67821" /><path
         style="fill:#fe2b2b"
         d="M 42.383017,58.937901 C 36.315761,58.187054 31.545002,55.183377 29.355421,50.735708 27.587901,47.145364 27.578114,47.030835 27.571928,29.865293 l -0.0056,-15.478124 4.431771,-0.07254 4.43177,-0.07254 0.002,14.09546 c 0.0012,8.490455 0.111489,14.770266 0.277344,15.792462 0.547769,3.376009 2.27608,5.836828 5.012324,7.136693 1.33726,0.635272 1.733995,0.691303 4.894791,0.691303 3.233107,0 3.538811,-0.04583 5.092561,-0.763436 1.808393,-0.835216 3.397756,-2.362522 4.301039,-4.133103 1.219564,-2.390544 1.312538,-3.71147 1.317431,-18.717522 l 0.0046,-14.089062 h 4.509758 4.509758 l -0.08721,15.54427 c -0.09617,17.140711 -0.06279,16.769659 -1.838488,20.439062 -0.979073,2.023211 -3.882396,5.067836 -5.903193,6.190496 -4.102973,2.279418 -10.260631,3.23674 -16.139583,2.509196 z M 8.0375946,58.534799 C 7.9371089,58.434313 7.8548933,52.061629 7.8548933,44.373279 V 30.39446 H 5.6152441 c -1.9434862,0 -2.2758677,-0.06767 -2.5135416,-0.511773 C 2.7860375,29.292862 2.7358962,25.127865 3.0387245,24.651405 3.1638175,24.454589 4.10012,24.302504 5.4820687,24.25453 l 2.240533,-0.07778 0.1798712,-3.254764 c 0.156539,-2.832565 0.2811675,-3.471228 0.9607726,-4.923511 1.3951865,-2.981445 3.6801815,-4.139446 8.5166475,-4.316108 1.673489,-0.06113 3.697552,-0.0117 4.497916,0.109848 l 1.455209,0.22099 v 2.717024 2.717024 l -2.158424,0.07719 c -3.469232,0.124072 -4.414563,1.176469 -4.268943,4.752432 l 0.07737,1.899873 3.241146,0.07429 3.241145,0.07429 v 2.873966 c 0,2.376605 -0.07243,2.901758 -0.418514,3.034565 -0.230183,0.08833 -1.717421,0.160599 -3.304973,0.160599 h -2.886458 l -0.06847,14.089062 -0.06846,14.089062 -4.24907,0.07246 c -2.336988,0.03985 -4.3312846,-0.0098 -4.4317704,-0.110243 z"
         id="path67820" /><path
         style="fill:#ffffff"
         d="M 43.044475,58.807964 C 34.953389,57.814888 30.028601,53.929685 28.303132,47.178405 27.880571,45.525043 27.833993,43.811408 27.832543,29.865293 l -0.0016,-15.478124 h 4.101042 4.101041 l 0.140158,14.948957 c 0.136923,14.604067 0.153876,14.989905 0.734793,16.723753 0.757856,2.261952 1.948373,3.821949 3.735261,4.894508 1.838835,1.10374 3.760987,1.482183 6.881509,1.354868 2.151292,-0.08777 2.789317,-0.225651 4.250987,-0.918649 2.665646,-1.26382 4.299069,-3.204556 5.31231,-6.311772 C 57.34718,44.284135 57.46998,40.329619 57.581,29.203835 l 0.14785,-14.816666 h 4.101041 4.101042 l -0.0028,15.610416 -0.0028,15.610416 -0.728613,2.158308 c -0.876199,2.595487 -2.392099,4.946799 -4.246499,6.586744 -1.725627,1.526064 -5.530553,3.379848 -8.116241,3.954282 -1.922042,0.426999 -7.899107,0.73266 -9.789583,0.500629 z M 8.0375946,58.534799 C 7.9371089,58.434313 7.8548933,52.061629 7.8548933,44.373279 V 30.39446 H 5.6152441 c -1.9434862,0 -2.2758677,-0.06767 -2.5135416,-0.511773 C 2.7860375,29.292862 2.7358962,25.127865 3.0387245,24.651405 3.1638175,24.454589 4.10012,24.302504 5.4820687,24.25453 l 2.240533,-0.07778 0.1798712,-3.254764 c 0.156539,-2.832565 0.2811675,-3.471228 0.9607726,-4.923511 1.3951865,-2.981445 3.6801815,-4.139446 8.5166475,-4.316108 1.673489,-0.06113 3.697552,-0.0117 4.497916,0.109848 l 1.455209,0.22099 v 2.717024 2.717024 l -2.158424,0.07719 c -3.469232,0.124072 -4.414563,1.176469 -4.268943,4.752432 l 0.07737,1.899873 3.241146,0.07429 3.241145,0.07429 v 2.873966 c 0,2.376605 -0.07243,2.901758 -0.418514,3.034565 -0.230183,0.08833 -1.717421,0.160599 -3.304973,0.160599 h -2.886458 l -0.06847,14.089062 -0.06846,14.089062 -4.24907,0.07246 c -2.336988,0.03985 -4.3312846,-0.0098 -4.4317704,-0.110243 z"
         id="path67819" /><path
         style="fill:#fe0000"
         d="M 43.044475,58.807964 C 34.953389,57.814888 30.028601,53.929685 28.303132,47.178405 27.880571,45.525043 27.833993,43.811408 27.832543,29.865293 l -0.0016,-15.478124 h 4.101042 4.101041 l 0.140158,14.948957 c 0.136923,14.604067 0.153876,14.989905 0.734793,16.723753 0.757856,2.261952 1.948373,3.821949 3.735261,4.894508 1.838835,1.10374 3.760987,1.482183 6.881509,1.354868 2.151292,-0.08777 2.789317,-0.225651 4.250987,-0.918649 2.665646,-1.26382 4.299069,-3.204556 5.31231,-6.311772 C 57.34718,44.284135 57.46998,40.329619 57.581,29.203835 l 0.14785,-14.816666 h 4.101041 4.101042 l -0.0028,15.610416 -0.0028,15.610416 -0.728613,2.158308 c -0.876199,2.595487 -2.392099,4.946799 -4.246499,6.586744 -1.725627,1.526064 -5.530553,3.379848 -8.116241,3.954282 -1.922042,0.426999 -7.899107,0.73266 -9.789583,0.500629 z M 8.3024836,58.270521 C 8.2018298,58.169867 8.1194767,51.860766 8.1194767,44.250296 c 0,-15.930709 0.3108627,-14.385003 -2.8930225,-14.385003 H 3.3569768 v -2.635532 -2.635533 l 2.3151041,-0.07645 2.3151041,-0.07645 0.1765213,-3.175 c 0.2236988,-4.023559 0.8214498,-5.77026 2.4718287,-7.222981 0.638847,-0.562336 1.792596,-1.235095 2.563887,-1.49502 1.634743,-0.55091 6.249852,-0.821125 8.413804,-0.49263 l 1.455208,0.220905 0.07562,2.409799 0.07562,2.409799 -2.059992,0.12216 c -3.75016,0.22239 -4.652991,1.232895 -4.517822,5.05663 l 0.07658,2.166338 3.241145,0.07429 3.241146,0.07429 v 2.637689 2.63769 h -2.859847 c -1.873129,0 -3.014046,0.11411 -3.30677,0.330729 -0.40812,0.302015 -0.452711,1.536745 -0.51359,14.221354 l -0.06667,13.890624 -3.98418,0.07276 c -2.191299,0.04002 -4.0665335,-0.0096 -4.1671874,-0.110243 z"
         id="path67818" /><path
         style="fill:#ffffff"
         d="M 8.3024836,58.270521 C 8.2018298,58.169867 8.1194767,51.860766 8.1194767,44.250296 c 0,-15.930709 0.3108627,-14.385003 -2.8930225,-14.385003 H 3.3569768 v -2.635532 -2.635533 l 2.3151041,-0.07645 2.3151041,-0.07645 0.1765213,-3.175 c 0.2236988,-4.023559 0.8214498,-5.77026 2.4718287,-7.222981 0.638847,-0.562336 1.792596,-1.235095 2.563887,-1.49502 1.634743,-0.55091 6.249852,-0.821125 8.413804,-0.49263 l 1.455208,0.220905 0.07562,2.409799 0.07562,2.409799 -2.059992,0.12216 c -3.75016,0.22239 -4.652991,1.232895 -4.517822,5.05663 l 0.07658,2.166338 3.241145,0.07429 3.241146,0.07429 v 2.637689 2.63769 h -2.859847 c -1.873129,0 -3.014046,0.11411 -3.30677,0.330729 -0.40812,0.302015 -0.452711,1.536745 -0.51359,14.221354 l -0.06667,13.890624 -3.98418,0.07276 c -2.191299,0.04002 -4.0665335,-0.0096 -4.1671874,-0.110243 z"
         id="path67817" /></g></g></svg>
