<?xml version="1.0" standalone="no"?>
<!DOCTYPE svg PUBLIC "-//W3C//DTD SVG 20010904//EN"
 "http://www.w3.org/TR/2001/REC-SVG-20010904/DTD/svg10.dtd">
<svg version="1.0" xmlns="http://www.w3.org/2000/svg"
 width="700.000000pt" height="700.000000pt" viewBox="0 0 700.000000 700.000000"
 preserveAspectRatio="xMidYMid meet">
<metadata>
Created by potrace 1.14, written by Peter Selinger 2001-2017
</metadata>
<g transform="translate(0.000000,700.000000) scale(0.100000,-0.100000)"
fill="#000000" stroke="none">
<path d="M1687 5844 c-1 -1 -48 -4 -103 -8 -133 -8 -174 -14 -264 -37 -216
-57 -402 -205 -498 -395 -37 -72 -68 -167 -77 -231 -4 -26 -8 -58 -10 -69 -2
-12 -6 -79 -10 -150 -4 -71 -8 -154 -10 -184 -2 -30 -4 -85 -5 -122 l-2 -66
-202 -4 c-289 -4 -293 -8 -299 -249 -5 -181 9 -376 27 -405 15 -21 45 -32 110
-39 12 -1 100 -3 196 -4 l176 -1 1 -1127 c2 -1219 8 -1722 24 -1738 9 -9 352
-12 790 -7 l145 2 2 343 c5 1077 14 2522 15 2524 1 1 139 3 307 5 320 4 352 8
366 50 21 66 30 404 13 521 -9 73 -28 94 -88 102 -25 4 -56 8 -69 10 -18 3
-344 15 -484 19 -37 1 -38 1 -39 41 -10 272 13 401 81 466 63 60 124 74 360
84 215 9 223 12 239 110 12 76 12 356 -1 426 -17 96 -52 112 -258 125 -97 6
-428 12 -433 8z"/>
<path d="M2704 5570 c-13 -62 -14 -120 -13 -965 0 -1105 10 -1979 24 -2125 2
-19 6 -71 10 -115 16 -199 53 -322 160 -540 174 -354 452 -595 865 -748 83
-30 216 -71 268 -82 59 -12 237 -45 287 -54 57 -10 565 -7 660 4 22 2 69 7
105 10 142 11 223 25 360 62 358 95 595 230 845 480 122 122 198 227 279 390
130 260 149 343 172 728 3 61 7 755 8 1543 l2 1432 -498 0 -498 0 -1 -82 c0
-46 -2 -243 -4 -438 -2 -195 -6 -634 -10 -975 -16 -1591 -20 -1657 -121 -1858
-117 -232 -376 -427 -614 -461 -124 -18 -453 -25 -543 -12 -171 24 -402 138
-489 241 -74 85 -176 283 -203 394 -35 139 -36 173 -59 2928 -1 139 -4 255 -7
257 -4 4 -333 11 -856 19 l-122 2 -7 -35z"/>
</g>
</svg>
